<?xml version="1.0" standalone="no"?>
<!DOCTYPE svg PUBLIC "-//W3C//DTD SVG 20010904//EN"
 "http://www.w3.org/TR/2001/REC-SVG-20010904/DTD/svg10.dtd">
<svg version="1.0" xmlns="http://www.w3.org/2000/svg"
 width="24pt" height="24pt" viewBox="0 0 24 24"
 preserveAspectRatio="xMidYMid meet">
<style type="text/css">
	.st0{fill:#004300;}
</style>
<g transform="translate(0.000000,24) scale(0.100000,-0.100000)"
fill="#000000" stroke="none">
<path d="M2570 4746 c-551 -70 -1040 -410 -1289 -895 -85 -165 -128 -289 -167
-481 -12 -63 -18 -151 -21 -345 -2 -143 -8 -277 -14 -298 -5 -20 -97 -204
-205 -408 -107 -204 -196 -380 -197 -392 -2 -22 1 -22 144 -27 140 -5 147 -6
182 -32 19 -16 46 -43 59 -60 23 -33 23 -34 28 -438 6 -451 4 -439 76 -498 65
-54 84 -54 398 -9 314 46 328 46 389 -12 58 -53 61 -69 65 -289 l4 -202 914 0
914 0 0 695 c0 563 3 702 14 728 7 18 53 75 102 127 113 120 159 177 217 268
123 191 212 428 248 662 17 107 17 391 0 490 -17 101 -47 222 -73 295 -205
586 -711 1012 -1317 1110 -129 21 -350 26 -471 11z m161 -317 c59 -42 58 -31
59 -572 0 -291 4 -507 10 -522 8 -22 40 -37 75 -37 38 0 64 14 74 42 7 21 11
176 11 454 l1 423 33 32 c28 27 42 33 80 33 41 1 52 -3 87 -38 21 -21 44 -54
49 -74 6 -19 10 -176 10 -353 l0 -318 -43 -47 c-24 -26 -292 -321 -597 -657
-304 -335 -564 -621 -577 -635 l-24 -25 -22 27 c-58 71 -246 416 -335 613 -12
28 -38 75 -57 105 -52 81 -78 156 -79 227 -1 59 1 64 38 102 50 51 82 59 132
31 63 -35 101 -77 195 -217 49 -73 98 -137 109 -143 22 -12 116 -5 140 10 10
6 12 133 11 611 -1 341 3 621 8 643 6 22 25 55 47 77 33 34 44 39 84 39 38 0
51 -5 75 -30 16 -16 25 -30 21 -30 -4 0 0 -10 8 -22 14 -19 16 -76 16 -414 0
-258 4 -402 11 -422 8 -23 20 -34 42 -40 33 -9 83 0 101 18 8 8 12 174 13 520
0 279 4 517 8 529 3 11 22 34 41 50 43 38 100 42 145 10z m836 -432 c56 -53
55 -55 -73 -197 -65 -72 -122 -130 -127 -130 -5 0 -6 21 -3 48 4 26 10 85 14
132 15 170 97 234 189 147z m70 -1147 c-3 -294 -10 -514 -17 -558 -34 -215
-88 -340 -196 -447 -128 -128 -242 -165 -513 -165 -202 0 -352 18 -466 54 -86
27 -212 97 -207 116 1 6 316 356 700 777 644 709 697 765 701 738 1 -17 1
-248 -2 -515z"/>
</g>
</svg>
