<?xml version="1.0" standalone="no"?>
<!DOCTYPE svg PUBLIC "-//W3C//DTD SVG 20010904//EN"
 "http://www.w3.org/TR/2001/REC-SVG-20010904/DTD/svg10.dtd">
<svg version="1.0" xmlns="http://www.w3.org/2000/svg"
 width="512.000000pt" height="512.000000pt" viewBox="0 0 512.000000 512.000000"
 preserveAspectRatio="xMidYMid meet">
<metadata>
Created by potrace 1.11, written by Peter Selinger 2001-2013
</metadata>
<g transform="translate(0.000000,512.000000) scale(0.100000,-0.100000)"
fill="#000000" stroke="none">
<path d="M2479 5105 c-798 -125 -1454 -693 -1674 -1450 -62 -213 -85 -389 -85
-649 l0 -189 -189 -361 c-104 -199 -197 -386 -207 -416 -28 -86 -24 -201 8
-272 56 -122 175 -209 317 -231 l71 -11 0 -280 c0 -318 7 -364 67 -479 90
-170 255 -286 438 -306 54 -6 107 -3 230 15 88 13 168 24 177 24 17 0 18 -16
18 -186 0 -195 2 -207 49 -257 55 -61 -22 -57 1231 -57 971 0 1155 2 1178 14
31 16 74 61 91 93 8 15 11 237 11 772 l0 751 61 67 c356 392 544 872 543 1388
-1 457 -141 867 -421 1236 -317 418 -805 706 -1328 784 -126 19 -465 19 -586
0z"/>
</g>
</svg>
